inDegrees=no
num_controls=7
num_derivatives=13
num_iterations=127
num_multipliers=7
num_parameters=0
num_slacks=7
num_states=26
objective=6.027024
objective_accelerations=1.014215
objective_balance=0.088640
objective_effort=0.677300
objective_height=4.166604
objective_ligament=0.080265
solver_duration=1258.326535
status=Solve_Succeeded
success=true
DataType=double
version=3
OpenSimVersion=4.4-2022-07-23-0e9fedc
endheader
time	/jointset/ground_pelvis/pelvis_tilt/value	/jointset/ground_pelvis/pelvis_tx/value	/jointset/ground_pelvis/pelvis_ty/value	/jointset/hip_l/hip_flexion_l/value	/jointset/hip_l/hip_adduction_l/value	/jointset/hip_l/hip_rotation_l/value	/jointset/back/lumbar_extension/value	/jointset/patellofemoral_l/patellar_flexion_l/value	/jointset/knee_l/knee_flexion_l/value	/jointset/knee_l/knee_adduction_l/value	/jointset/knee_l/knee_rotation_l/value	/jointset/ankle_l/ankle_angle_l/value	/jointset/subtalar_l/subtalar_angle_l/value	/jointset/ground_pelvis/pelvis_tilt/speed	/jointset/ground_pelvis/pelvis_tx/speed	/jointset/ground_pelvis/pelvis_ty/speed	/jointset/hip_l/hip_flexion_l/speed	/jointset/hip_l/hip_adduction_l/speed	/jointset/hip_l/hip_rotation_l/speed	/jointset/back/lumbar_extension/speed	/jointset/patellofemoral_l/patellar_flexion_l/speed	/jointset/knee_l/knee_flexion_l/speed	/jointset/knee_l/knee_adduction_l/speed	/jointset/knee_l/knee_rotation_l/speed	/jointset/ankle_l/ankle_angle_l/speed	/jointset/subtalar_l/subtalar_angle_l/speed	/forceset/tau_hip_flexion_l	/forceset/tau_hip_adduction_l	/forceset/tau_hip_rotation_l	/forceset/tau_knee_flexion_l	/forceset/tau_ankle_angle_l	/forceset/tau_subtalar_angle_l	/forceset/tau_lumbar_extension	lambda_cid13_p0	lambda_cid13_p1	lambda_cid13_p2	lambda_cid13_p3	lambda_cid13_p4	lambda_cid13_p5	lambda_cid14_p0	/jointset/ground_pelvis/pelvis_tilt/accel	/jointset/ground_pelvis/pelvis_tx/accel	/jointset/ground_pelvis/pelvis_ty/accel	/jointset/hip_l/hip_flexion_l/accel	/jointset/hip_l/hip_adduction_l/accel	/jointset/hip_l/hip_rotation_l/accel	/jointset/back/lumbar_extension/accel	/jointset/patellofemoral_l/patellar_flexion_l/accel	/jointset/knee_l/knee_flexion_l/accel	/jointset/knee_l/knee_adduction_l/accel	/jointset/knee_l/knee_rotation_l/accel	/jointset/ankle_l/ankle_angle_l/accel	/jointset/subtalar_l/subtalar_angle_l/accel	gamma_cid13_p0	gamma_cid13_p1	gamma_cid13_p2	gamma_cid13_p3	gamma_cid13_p4	gamma_cid13_p5	gamma_cid14_p0
1	-0.1459446167319303	-0.05069945113003817	0.4275086317803465	2.089096878152327	-0.3023179662413893	0.1205574851950613	-0.9599064381851478	2.092917199413646	2.092917199413641	0.1744362759660757	-0.1745298294566957	0.2999763843995877	0.1088748516601098	0.04786010965322762	0.002738549734092948	0.07579689662544624	-0.2934414876795999	-0.01909196364645158	-0.05049694301798773	0.0001831280243811451	-0.1485589018849569	-0.1485589018849489	-0.01661350482864982	8.908163475072274e-05	0.09121011122161468	0.02040015168196804	-0.4325842167327347	-0.01686707439654637	-0.06232619862700973	-0.4072859670736169	0.01924282509110102	-0.005872279930701526	0.4649092344934233	-51.94876348528725	21.8569742341426	-15.60208608513435	35.99803742376382	-862.6564205167012	-13.44050434605635	-0.02312717760543962	-0.4971243372386892	-0.734383351330259	2.719385812837576	-8.045360635449414	-0.3160779301829331	-1.783590161572475	-0.01226343914143959	-7.482942545089017	-7.482942545089103	-1.339771994713938	-0.006796948808997687	0.5843539949767026	-0.1080716141076774	2.544889479825061e-08	1.727064775448419e-08	-3.103744151420048e-07	-4.634235656986422e-08	-7.418408889898296e-08	-3.036086642678788e-07	3.199196989960624e-08
1.01	-0.1454908123822997	-0.05070866461194417	0.4284027738341078	2.085759735152078	-0.3025231987874263	0.1199674887903973	-0.9599051680611904	2.091056972896455	2.091056972896455	0.1742000375935055	-0.1745284141441721	0.300917611022796	0.1090753882499166	0.0429305048339893	-0.004562418133351199	0.1030475258714492	-0.3739896358799091	-0.0219351384326827	-0.06747480095651211	6.637403253775085e-05	-0.2235246498506216	-0.2235246498506236	-0.03066164689870144	0.0001876385298909616	0.09696572218982819	0.01969836727954406	-0.4324639843037816	-0.01662548215005365	-0.06223359190404532	-0.4088167530652249	0.01973422334805262	-0.00552557209517476	0.4652251188023482	-51.80849676598949	21.68710679494852	-15.58102160758104	35.63834702995116	-863.3756422628684	-13.92602443526296	-0.02326659384020872	-0.4864156131378205	-0.7251438564685937	2.730281120494546	-8.05991994558611	-0.2654517852324778	-1.650749433218375	-0.01205978883898521	-7.509138274997882	-7.509138274999268	-1.441410769537063	0.01713086871299014	0.5607413429520328	-0.05249596078641992	3.81427618684339e-08	-3.043508897355943e-08	-4.271070902340187e-07	-7.248331750831163e-08	-1.102442084814111e-07	-5.552026993258298e-07	5.035588937529851e-08
1.02	-0.1450854114926498	-0.05079032584292776	0.4295698981083316	2.081617035063149	-0.3027562659878099	0.1192085406417254	-0.9599052011591299	2.088445939429069	2.088445939429101	0.1738225027089966	-0.1745262234907208	0.3019143090947234	0.109268654174204	0.03817941765990929	-0.01175100008142579	0.1303933407179633	-0.4545529054107924	-0.0246588945144901	-0.08428729182405917	-7.751634462040984e-05	-0.2987202919239949	-0.2987202919240073	-0.04487280722422052	0.000244149826526275	0.1023044009663783	0.01894601857805705	-0.4323437518748949	-0.01638388990353303	-0.06214098518101858	-0.410347539056831	0.0202256216050298	-0.005178864259597388	0.4655410031112177	-51.65909868755941	21.51609943586161	-15.56029892206076	35.27827094348398	-863.9579198727438	-14.37973016021959	-0.02346724886424417	-0.4614208082070643	-0.7119061674562887	2.738422932939795	-8.048384901564255	-0.292194189298277	-1.750516747376808	-0.01769071620447223	-7.528921366630649	-7.528921366630844	-1.372375645807641	-0.01520606851019066	0.5009675566441643	-0.1181844739203365	5.451526179973463e-08	-9.259793343955273e-08	-5.65344725144406e-07	-1.00736245013498e-07	-1.479355112192426e-07	-9.001003799443243e-07	7.637944003456538e-08
1.03	-0.1447263915669182	-0.05094314451183682	0.4310109352245194	2.076668854160088	-0.3030159309566965	0.1182824866715589	-0.9599067133987866	2.08508197948423	2.085081979484254	0.1733019820596008	-0.1745237423861427	0.3029620342069643	0.109454062927153	0.03367640407959018	-0.01877756118266092	0.157828282242223	-0.5350657382973151	-0.02724687058992208	-0.1008995598818896	-0.0002189750051930024	-0.3740936506040073	-0.3740936506040246	-0.05924190464706892	0.0002541431153979973	0.1071457271935799	0.01812480984587575	-0.4322974453384756	-0.01610040852344303	-0.06192308064156457	-0.4121840117537698	0.02121077225227971	-0.004684740051688849	0.4660648487314357	-51.34314929228985	21.2397497961328	-15.50889575462	34.57699999721007	-864.742049619583	-15.06301961489825	-0.02371156537667756	-0.4369597289224639	-0.6927811771093983	2.748122363353951	-8.050096688902956	-0.2379004971551449	-1.612979179652524	-0.01147995415767625	-7.544856806963515	-7.544856806964022	-1.470679065000368	0.009237185326244294	0.4614803251877718	-0.06561880821984133	7.092529880104678e-08	-1.549082994130762e-07	-7.038017984202873e-07	-1.290107231979369e-07	-1.856434586831496e-07	-1.245950138578743e-06	1.024811501957055e-07
1.04	-0.1444108453961985	-0.0511651788108884	0.4327267402761868	2.070916072086813	-0.3033006359224377	0.1171910305518961	-0.9599094615277168	2.080963623214936	2.080963623214959	0.1726374699811459	-0.1745211343171144	0.30405532561536	0.1096309536457097	0.02948466666016229	-0.02559412610993284	0.1853469278138815	-0.6154731394520994	-0.02966689388493436	-0.1173677217263625	-0.0003246941927135428	-0.4495995568150999	-0.449599556815121	-0.07367109304900936	0.000269542713884093	0.111417660197967	0.01724241169958526	-0.4322511388020649	-0.0158169271433331	-0.06170517610201534	-0.4140204844507109	0.02219592289953452	-0.004190615843751169	0.4665886943516468	-51.01864496826936	20.96151109304388	-15.45674397145944	33.87927518608237	-865.3962940665759	-15.71989203941951	-0.02401524479558775	-0.3991655760288967	-0.6699069326635771	2.755163742419584	-8.027298555216587	-0.2586036332144228	-1.721695504705066	-0.0105428215943822	-7.555430872846584	-7.555430872846616	-1.384393841626275	-0.01412480658751473	0.3870889120814079	-0.1304223567422063	8.775612551083052e-08	-2.228735488938521e-07	-8.452344681149852e-07	-1.551680774928661e-07	-2.204148735009799e-07	-1.614801687364847e-06	1.30695083831109e-07
1.05	-0.1441353578877054	-0.05145417058019255	0.4347181193323654	2.064359926303765	-0.3036087029961135	0.1159358731829122	-0.959913105955019	2.076089742169116	2.076089742169154	0.1718282189434354	-0.1745184900832988	0.3051882121591136	0.1097985698568768	0.02569295123532711	-0.03215372410432869	0.2129404384660478	-0.6957247195126813	-0.03191422604459347	-0.1336329425042681	-0.0003991429928571735	-0.5251816113121318	-0.5251816113120735	-0.08818406192022035	0.0002621503506948709	0.1150404709066434	0.01626432595603076	-0.4322098011505595	-0.01548989818447048	-0.06135341897233403	-0.4161224721706931	0.02365758120268399	-0.003551877799835839	0.4672307265805956	-50.52791449136942	20.57805369402461	-15.37261726986182	32.86318770721086	-866.1544609460645	-16.60075247148441	-0.0243607370555716	-0.3571446171606242	-0.6414472010288549	2.763126614062147	-8.019382119224861	-0.2027988223895533	-1.574291993524087	-0.005138669259166144	-7.560368663112855	-7.560368663100832	-1.485364466643986	0.006126252656746173	0.331998490017022	-0.0838133498781734	1.04600101899004e-07	-2.910155134842296e-07	-9.867601251977713e-07	-1.812592716662481e-07	-2.550945216736202e-07	-1.984372042093192e-06	1.589750244500832e-07
1.06	-0.1438953815517634	-0.05180725052308065	0.4369857698725552	2.057002205842555	-0.303938243554397	0.114518992280314	-0.9599173434223123	2.07045988539333	2.070459885393384	0.1708737150058101	-0.1745158852323299	0.3063537510779045	0.1099559428772653	0.02238243215251858	-0.03841176082672308	0.2406012246161045	-0.7757880750830903	-0.03396159080616305	-0.1497124284497992	-0.000443302194376691	-0.6007947028084193	-0.6007947028082816	-0.1027216730624655	0.000261666141160565	0.1179481352055712	0.0151937735438354	-0.4321684634990565	-0.01516286922561007	-0.06100166184240775	-0.4182244598906821	0.0251192395058312	-0.002913139755927689	0.4678727588095386	-50.02950040494699	20.1919171857091	-15.28653930423708	31.85591178994094	-866.7935669397349	-17.4612985816051	-0.02476227576763108	-0.3029263076236794	-0.609594678263207	2.768618841997648	-7.989653657182083	-0.2186101535965818	-1.684548538229933	-0.004484901869918974	-7.561638272697643	-7.561638272697689	-1.389322295833313	-0.01274317585667997	0.2440596301318678	-0.1489156904703669	1.21945013040358e-07	-3.651877927080957e-07	-1.130994842233041e-06	-2.046265553681536e-07	-2.854576936106263e-07	-2.378730503414693e-06	1.896789670215695e-07
1.07	-0.1436858723707235	-0.05222125753401182	0.4395303037794917	2.048845078782646	-0.304287290301941	0.112942437900998	-0.9599218190616541	2.064073948770699	2.064073948770707	0.169773603774166	-0.1745134016770005	0.3075444857125097	0.1101019474425585	0.01962051882130199	-0.04432526042195807	0.2683116414327244	-0.8555838536055993	-0.03581164602255246	-0.1655641453621632	-0.0004408664094631755	-0.6763806740728665	-0.6763806740726949	-0.1172979159161585	0.0002387332126046898	0.1200539035563454	0.01398263463857636	-0.4320925713569988	-0.01478246648398857	-0.06051064127379031	-0.4205270693794163	0.02701644787798475	-0.002143449491191129	0.4685868379403083	-49.37435282018968	19.70778350788342	-15.16921077889776	30.55819240490015	-867.4524172648307	-18.52324046412328	-0.02520370822329916	-0.2476369883509065	-0.5726163574680643	2.773102256364036	-7.966499614312327	-0.162590842236116	-1.530301283627085	0.004251705745590887	-7.555328944781494	-7.555328944776272	-1.491207214193467	0.003149239771629149	0.1720986046653951	-0.1106665802985401	1.393165696473067e-07	-4.396808333486368e-07	-1.275373658201953e-06	-2.278489502151933e-07	-3.155912657478645e-07	-2.774407481044341e-06	2.205118458671256e-07
1.08	-0.1435009449515019	-0.05269247729235795	0.4423521116855685	2.039891602004615	-0.3046537151289619	0.1112084027493564	-0.9599259415655415	2.056932501957131	2.056932501957071	0.1685278437273786	-0.174511103932703	0.3087519306640496	0.1102351499008502	0.01746607979089525	-0.04985431030971507	0.2960560244441541	-0.9350580187091805	-0.03743720670196552	-0.1812085829100259	-0.0003726751415822352	-0.7518967409958438	-0.7518967409956377	-0.1318514361321138	0.0002245039291152805	0.1212901985917273	0.01263335214352344	-0.4320166792148855	-0.0144020637424081	-0.06001962070481607	-0.4228296788681635	0.02891365625010854	-0.00137375922653143	0.4693009170711152	-48.71270854116597	19.22015874754062	-15.04863664082693	29.27577548399125	-868.0072115589024	-19.57175380608407	-0.02569632781175355	-0.1814314474618781	-0.5327047367675234	2.775412080959609	-7.925330973396599	-0.1737112462013806	-1.643092665329427	0.008666194723652664	-7.547657404403591	-7.547657404403512	-1.384777768285963	-0.01100244684350156	0.07016496705362296	-0.1765444084290948	1.549390708329851e-07	-5.135528495015693e-07	-1.410149468913314e-06	-2.460224484447193e-07	-3.388411135773761e-07	-3.143969805146363e-06	2.496887198216039e-07
